<svg xmlns="http://www.w3.org/2000/svg" viewBox="0 0 512 512">
  <defs>
    <linearGradient id="bgGradient" x1="0%" y1="0%" x2="100%" y2="100%">
      <stop offset="0%" stop-color="#0f172a"/>
      <stop offset="50%" stop-color="#1d1238"/>
      <stop offset="100%" stop-color="#2a0f4f"/>
    </linearGradient>
    <linearGradient id="bananaSkin" x1="0%" y1="0%" x2="100%" y2="100%">
      <stop offset="0%" stop-color="#FFD166"/>
      <stop offset="100%" stop-color="#FFB703"/>
    </linearGradient>
    <linearGradient id="bananaShadow" x1="0%" y1="0%" x2="100%" y2="100%">
      <stop offset="0%" stop-color="#F97316" stop-opacity="0.6"/>
      <stop offset="100%" stop-color="#FB923C" stop-opacity="0"/>
    </linearGradient>
  </defs>
  <rect width="512" height="512" rx="96" fill="url(#bgGradient)"/>
  <g transform="translate(80,120) scale(1.1)">
    <path d="M140 70c30-38 68-58 112-58 60 0 110 44 110 123 0 82-52 130-115 130-41 0-76-18-108-57v52H60V0h80v70Z" fill="#36C5F0" opacity="0.3"/>
    <path d="M132 62c32-40 71-60 117-60 65 0 119 48 119 133 0 89-56 141-123 141-44 0-82-20-116-63v57H48V0h84v62Z" fill="url(#bananaShadow)"/>
  </g>
  <g transform="translate(140,150)">
    <path d="M126 192c38 46 74 64 118 54 52-12 94-61 82-116-11-48-54-66-88-52 13 38-37 82-100 85-42 2-68-14-86-45-18 12-30 37-24 66 10 51 65 72 98 44Z" fill="url(#bananaSkin)"/>
    <path d="M108 95c18 31 44 47 86 45 49-2 95-32 90-76-14-14-31-19-46-14-24 8-38 34-82 38-18 2-34 1-48 7Z" fill="#FFF3C4"/>
    <path d="M102 215c44 52 102 66 156 40l-12-22c-58 22-112-14-134-64l-10 46Z" fill="#F59E0B" opacity="0.6"/>
  </g>
  <text x="256" y="450" text-anchor="middle" font-family="Inter, 'Segoe UI', sans-serif" font-size="46" font-weight="600" fill="#E0E7FF">Nano Banana</text>
</svg>
